<?xml version="1.0" encoding="UTF-8"?>
<svg version="1.1" xmlns="http://www.w3.org/2000/svg" width="500" height="500">
<path d="M0 0 C165 0 330 0 500 0 C500 165 500 330 500 500 C335 500 170 500 0 500 C0 335 0 170 0 0 Z " fill="#1D3F69" transform="translate(0,0)"/>
<path d="M0 0 C0.72397476 0.00091141 1.44794952 0.00182281 2.19386292 0.00276184 C2.93858353 -0.00152328 3.68330414 -0.00580841 4.45059204 -0.01022339 C6.02670779 -0.01596972 7.60285007 -0.01646471 9.17897034 -0.01213074 C11.59129608 -0.00897356 14.00239229 -0.03241447 16.41456604 -0.05778503 C17.94516345 -0.06005828 19.47576416 -0.0607614 21.00636292 -0.05973816 C21.72831345 -0.06894791 22.45026398 -0.07815765 23.1940918 -0.08764648 C26.14838618 -0.06034524 28.17866317 -0.03041058 30.65699768 1.66609192 C31.66651917 3.30354309 31.66651917 3.30354309 31.47901917 5.86604309 C30.66651917 8.30354309 30.66651917 8.30354309 28.66651917 10.30354309 C26.50245667 10.49885559 26.50245667 10.49885559 24.04151917 10.42854309 C23.22425354 10.41049622 22.40698792 10.39244934 21.56495667 10.37385559 C20.93847229 10.35065247 20.31198792 10.32744934 19.66651917 10.30354309 C19.99748596 11.01035217 20.32845276 11.71716125 20.66944885 12.44538879 C28.86970282 29.97886368 36.86916011 47.58671855 44.66651917 65.30354309 C45.57015198 65.3409259 46.47378479 65.37830872 47.40480042 65.41682434 C48.5842926 65.48256653 49.76378479 65.54830872 50.97901917 65.61604309 C52.15077698 65.6740509 53.32253479 65.73205872 54.52980042 65.79182434 C57.66651917 66.30354309 57.66651917 66.30354309 59.60011292 67.68244934 C60.66651917 69.30354309 60.66651917 69.30354309 60.41651917 71.92854309 C59.66651917 74.30354309 59.66651917 74.30354309 58.66651917 75.30354309 C56.98042951 75.3755982 55.29151257 75.38740377 53.60401917 75.36604309 C52.22536682 75.35250793 52.22536682 75.35250793 50.81886292 75.33869934 C49.75345276 75.321297 49.75345276 75.321297 48.66651917 75.30354309 C49.01843323 75.98416809 49.37034729 76.66479309 49.73292542 77.36604309 C54.06323491 85.868374 57.90638157 94.53730514 61.66651917 103.30354309 C63.03937073 103.37701965 63.03937073 103.37701965 64.43995667 103.45198059 C65.62847229 103.52674622 66.81698792 103.60151184 68.04151917 103.67854309 C69.81655823 103.78295715 69.81655823 103.78295715 71.62745667 103.88948059 C74.66651917 104.30354309 74.66651917 104.30354309 76.66651917 106.30354309 C76.91651917 108.80354309 76.91651917 108.80354309 76.66651917 111.30354309 C74.15829816 113.81176409 72.60497974 113.55984076 69.18057251 113.60708618 C68.43472397 113.60617477 67.68887543 113.60526337 66.92042542 113.60432434 C66.15350876 113.60860947 65.3865921 113.61289459 64.59643555 113.61730957 C62.97324105 113.62305632 61.35002079 113.62355059 59.7268219 113.61921692 C57.24208123 113.61605969 54.75853415 113.63950063 52.27394104 113.66487122 C50.69777067 113.66714445 49.12159709 113.66784759 47.54542542 113.66682434 C46.8016011 113.67603409 46.05777679 113.68524384 45.29141235 113.69473267 C40.17685091 113.64883138 40.17685091 113.64883138 37.65846252 111.94490051 C36.66651917 110.30354309 36.66651917 110.30354309 36.91651917 107.67854309 C37.66651917 105.30354309 37.66651917 105.30354309 38.66651917 104.30354309 C40.68616115 104.23110256 42.7081904 104.21977121 44.72901917 104.24104309 C45.83374573 104.25006653 46.93847229 104.25908997 48.07667542 104.26838684 C48.93132385 104.2799884 49.78597229 104.29158997 50.66651917 104.30354309 C50.30300354 103.49610657 49.93948792 102.68867004 49.56495667 101.85676575 C48.22018575 98.86508148 46.87875088 95.87194835 45.53956604 92.87776184 C44.9588703 91.58126441 44.37684458 90.28536183 43.79347229 88.99006653 C42.95599518 87.1299558 42.12329778 85.26777015 41.29151917 83.40510559 C40.78878479 82.28442688 40.28605042 81.16374817 39.76808167 80.0091095 C38.66651917 77.30354309 38.66651917 77.30354309 38.66651917 75.30354309 C20.84651917 75.30354309 3.02651917 75.30354309 -15.33348083 75.30354309 C-16.32348083 78.27354309 -17.31348083 81.24354309 -18.33348083 84.30354309 C-19.05419729 86.06876303 -19.80274965 87.8232473 -20.59519958 89.55744934 C-21.18977966 90.86745911 -21.18977966 90.86745911 -21.79637146 92.20393372 C-22.20049255 93.08242981 -22.60461365 93.9609259 -23.02098083 94.86604309 C-23.43670349 95.77934387 -23.85242615 96.69264465 -24.28074646 97.63362122 C-25.29430985 99.85880061 -26.311933 102.0820209 -27.33348083 104.30354309 C-26.49043396 104.28033997 -25.64738708 104.25713684 -24.77879333 104.23323059 C-23.68309021 104.21518372 -22.58738708 104.19713684 -21.45848083 104.17854309 C-20.36793396 104.15533997 -19.27738708 104.13213684 -18.15379333 104.10823059 C-15.33348083 104.30354309 -15.33348083 104.30354309 -13.33348083 106.30354309 C-13.08348083 108.80354309 -13.08348083 108.80354309 -13.33348083 111.30354309 C-15.87523805 113.84530031 -17.52917081 113.56079198 -20.99754333 113.60708618 C-22.1538324 113.60571907 -22.1538324 113.60571907 -23.33348083 113.60432434 C-24.12496521 113.60860947 -24.91644958 113.61289459 -25.73191833 113.61730957 C-27.40638776 113.62305607 -29.08088216 113.62355078 -30.75535583 113.61921692 C-33.32349495 113.61605538 -35.89048414 113.63951619 -38.45848083 113.66487122 C-40.08347938 113.66714396 -41.70848103 113.66784782 -43.33348083 113.66682434 C-44.4897699 113.68063896 -44.4897699 113.68063896 -45.66941833 113.69473267 C-47.83348083 113.67585754 -47.83348083 113.67585754 -51.33348083 113.30354309 C-53.33348083 110.30354309 -53.33348083 110.30354309 -53.02098083 107.67854309 C-52.33348083 105.30354309 -52.33348083 105.30354309 -51.33348083 104.30354309 C-48.98034529 104.23082568 -46.62514415 104.21983441 -44.27098083 104.24104309 C-42.33545349 104.25457825 -42.33545349 104.25457825 -40.36082458 104.26838684 C-39.36180115 104.2799884 -38.36277771 104.29158997 -37.33348083 104.30354309 C-37.2201239 103.59689514 -37.10676697 102.89024719 -36.98997498 102.16218567 C-36.27527818 99.05010507 -35.17597574 96.45925052 -33.82957458 93.56526184 C-33.08997498 91.96521301 -33.08997498 91.96521301 -32.33543396 90.33283997 C-31.81916443 89.230047 -31.3028949 88.12725403 -30.77098083 86.99104309 C-29.99077576 85.30784973 -29.99077576 85.30784973 -29.19480896 83.59065247 C-27.91248709 80.82601358 -26.62523237 78.06378543 -25.33348083 75.30354309 C-26.04375427 75.31514465 -26.75402771 75.32674622 -27.48582458 75.33869934 C-28.40492615 75.34772278 -29.32402771 75.35674622 -30.27098083 75.36604309 C-31.18750427 75.37764465 -32.10402771 75.38924622 -33.04832458 75.40119934 C-35.33348083 75.30354309 -35.33348083 75.30354309 -36.33348083 74.30354309 C-36.52098083 71.36604309 -36.52098083 71.36604309 -36.33348083 68.30354309 C-34.33348083 66.30354309 -34.33348083 66.30354309 -31.07566833 66.10823059 C-29.79949646 66.13143372 -28.52332458 66.15463684 -27.20848083 66.17854309 C-25.28648865 66.2056134 -25.28648865 66.2056134 -23.32566833 66.23323059 C-21.84453552 66.26803528 -21.84453552 66.26803528 -20.33348083 66.30354309 C-20.23760681 65.63492249 -20.14173279 64.96630188 -20.04295349 64.27742004 C-19.14897332 60.53014805 -17.60755577 57.19364401 -15.98191833 53.72151184 C-15.64479828 52.98967178 -15.30767822 52.25783173 -14.96034241 51.5038147 C-13.88141141 49.16386428 -12.79531729 46.8273307 -11.70848083 44.49104309 C-10.29726008 41.44395695 -8.88907086 38.39547857 -7.48191833 35.34651184 C-6.96404755 34.22610001 -6.96404755 34.22610001 -6.43571472 33.08305359 C-2.95876851 25.53750323 0.36950444 17.92910991 3.66651917 10.30354309 C2.22901917 10.36604309 0.79151917 10.42854309 -0.64598083 10.49104309 C-4.83965661 10.67337682 -4.83965661 10.67337682 -7.13816833 8.95198059 C-8.33348083 7.30354309 -8.33348083 7.30354309 -8.14598083 4.74104309 C-6.60442103 0.11636368 -4.54393425 0.06456206 0 0 Z " fill="#EDEAE7" transform="translate(206.33348083496094,164.6964569091797)"/>
<path d="M0 0 C0.66 0 1.32 0 2 0 C4.18725076 4.78304967 6.37433674 9.56617464 8.5612793 14.34936523 C9.30309754 15.97178107 10.04495844 17.59417739 10.78686523 19.21655273 C11.14530518 20.0003833 11.50374512 20.78421387 11.87304688 21.59179688 C12.40576706 22.7565303 12.40576706 22.7565303 12.94924927 23.9447937 C13.65483481 25.48865095 14.35965462 27.0328584 15.06369019 28.5774231 C16.57286935 31.88753957 18.09018425 35.19224406 19.63525391 38.48583984 C20.32047119 39.9527124 20.32047119 39.9527124 21.01953125 41.44921875 C21.40858643 42.27123779 21.7976416 43.09325684 22.19848633 43.94018555 C23 46 23 46 23 49 C8.48 49 -6.04 49 -21 49 C-17.625 38.875 -17.625 38.875 -16.00708008 35.30639648 C-15.64693314 34.50624619 -15.28678619 33.70609589 -14.91572571 32.88169861 C-14.53748154 32.05319901 -14.15923737 31.2246994 -13.76953125 30.37109375 C-13.37424728 29.49598648 -12.97896332 28.62087921 -12.57170105 27.71925354 C-11.32276427 24.95677696 -10.067747 22.1971141 -8.8125 19.4375 C-7.95857891 17.55161583 -7.10505944 15.66554976 -6.25195312 13.77929688 C-4.17260311 9.18408313 -2.08779966 4.5913805 0 0 Z " fill="#21426B" transform="translate(217,182)"/>
<path d="M0 0 C1.73905609 -0.00855011 1.73905609 -0.00855011 3.51324463 -0.01727295 C5.95397029 -0.02668771 8.39470846 -0.03324285 10.83544922 -0.03710938 C14.57932224 -0.04687812 18.3226604 -0.07796032 22.06640625 -0.109375 C24.44010091 -0.11589955 26.81379949 -0.12115216 29.1875 -0.125 C30.8703006 -0.1435202 30.8703006 -0.1435202 32.58709717 -0.16241455 C33.62537659 -0.15941345 34.66365601 -0.15641235 35.73339844 -0.15332031 C36.64716248 -0.15696594 37.56092651 -0.16061157 38.50238037 -0.16436768 C41.28160563 0.27477982 42.16472092 0.97137733 43.828125 3.203125 C44.20043945 5.42382812 44.20043945 5.42382812 44.19140625 7.984375 C44.19043945 9.37076172 44.19043945 9.37076172 44.18945312 10.78515625 C44.17333984 11.74808594 44.15722656 12.71101562 44.140625 13.703125 C44.14384766 14.66605469 44.14707031 15.62898437 44.15039062 16.62109375 C44.09530423 23.80235615 44.09530423 23.80235615 41.828125 27.203125 C38.828125 27.578125 38.828125 27.578125 35.828125 27.203125 C33.33693547 23.4663407 33.6216024 21.45860681 33.703125 17.015625 C33.72117187 15.74332031 33.73921875 14.47101563 33.7578125 13.16015625 C33.78101563 12.18433594 33.80421875 11.20851562 33.828125 10.203125 C26.90834301 10.24503185 19.98934991 10.31758799 13.07006836 10.41064453 C10.72020602 10.43872861 8.37025143 10.46000508 6.02026367 10.47412109 C2.62631418 10.49572485 -0.76654054 10.54246527 -4.16015625 10.59375 C-5.19707108 10.59497864 -6.2339859 10.59620728 -7.30232239 10.59747314 C-16.81728186 10.78505631 -24.86119285 13.71086438 -33.171875 18.203125 C-37.171875 11.453125 -37.171875 11.453125 -37.171875 9.203125 C-35.29950129 8.23967056 -33.4238451 7.28259398 -31.546875 6.328125 C-30.50273437 5.79445312 -29.45859375 5.26078125 -28.3828125 4.7109375 C-18.9903039 0.30034344 -10.19979759 0.03891996 0 0 Z " fill="#E5E3E2" transform="translate(274.171875,175.796875)"/>
<path d="M0 0 C3.95099928 -0.0246985 7.90196874 -0.04285923 11.85302734 -0.05493164 C13.85906551 -0.06244036 15.86508202 -0.0751447 17.87109375 -0.08789062 C19.75634766 -0.09272461 19.75634766 -0.09272461 21.6796875 -0.09765625 C23.42354736 -0.10551147 23.42354736 -0.10551147 25.20263672 -0.11352539 C28 0 28 0 30 1 C30.125 3.875 30.125 3.875 30 7 C27.41904926 9.58095074 26.39614189 9.25738192 22.80688477 9.2746582 C21.72137833 9.28419022 20.63587189 9.29372223 19.51747131 9.30354309 C17.74731911 9.30217598 17.74731911 9.30217598 15.94140625 9.30078125 C14.72734604 9.30506638 13.51328583 9.3093515 12.26243591 9.31376648 C9.68415958 9.31952195 7.10586701 9.32000114 4.52758789 9.31567383 C0.60989965 9.31253794 -3.30701593 9.33587476 -7.22460938 9.36132812 C-9.73176989 9.3636036 -12.23893242 9.36430346 -14.74609375 9.36328125 C-16.48891884 9.37709587 -16.48891884 9.37709587 -18.26695251 9.39118958 C-25.62178961 9.35006135 -32.01546585 8.31635031 -39 6 C-39 5.67 -39 5.34 -39 5 C-37.99622314 4.98018066 -36.99244629 4.96036133 -35.95825195 4.93994141 C-32.22135034 4.86366251 -28.48482683 4.77498014 -24.74829102 4.68261719 C-23.1334583 4.64441928 -21.51854316 4.60955055 -19.90356445 4.578125 C-17.57733783 4.53227391 -15.25167408 4.47431416 -12.92578125 4.4140625 C-11.84892815 4.39673569 -11.84892815 4.39673569 -10.75032043 4.37905884 C-6.75341398 4.26232499 -3.60665231 3.75259319 0 2 C0 1.34 0 0.68 0 0 Z " fill="#EFEBE8" transform="translate(287,279)"/>
<path d="M0 0 C2.97 0 5.94 0 9 0 C9.44730469 0.94101563 9.89460937 1.88203125 10.35546875 2.8515625 C10.96570537 4.10958875 11.57640747 5.36738929 12.1875 6.625 C12.62545898 7.55119141 12.62545898 7.55119141 13.07226562 8.49609375 C14.66418434 11.7484008 16.2529028 14.39754712 18.71875 17.0625 C21.40376836 20.5199209 21.55131401 22.07634785 21.3125 26.375 C21.24482422 27.96441406 21.24482422 27.96441406 21.17578125 29.5859375 C21.11777344 30.38257813 21.05976563 31.17921875 21 32 C11.17738289 26.35199516 5.13143718 17.39337159 1 7 C0.3814944 4.56693825 0.11435186 2.51574089 0 0 Z " fill="#ECEAE7" transform="translate(217,247)"/>
<path d="M0 0 C3.16273518 0.06279799 5.24876318 0.51852133 7.875 2.3125 C10.47093007 5.57405317 10.69929302 6.08587503 10.4375 10 C10.05377685 12.88284318 9.63080327 14.05312831 7.5703125 16.13671875 C4.8487079 17.62936349 3.14429917 17.68414997 0.0625 17.5625 C-0.82953125 17.53542969 -1.7215625 17.50835937 -2.640625 17.48046875 C-3.31609375 17.44566406 -3.9915625 17.41085937 -4.6875 17.375 C-4.71434679 14.72909986 -4.73426357 12.08346904 -4.75 9.4375 C-4.75837891 8.68275391 -4.76675781 7.92800781 -4.77539062 7.15039062 C-4.78402441 5.22505687 -4.73974333 3.29964419 -4.6875 1.375 C-3.6875 0.375 -3.6875 0.375 0 0 Z " fill="#CCCFD3" transform="translate(398.6875,324.625)"/>
<path d="M0 0 C3.16273518 0.06279799 5.24876318 0.51852133 7.875 2.3125 C10.47093007 5.57405317 10.69929302 6.08587503 10.4375 10 C10.05377685 12.88284318 9.63080327 14.05312831 7.5703125 16.13671875 C4.8487079 17.62936349 3.14429917 17.68414997 0.0625 17.5625 C-0.82953125 17.53542969 -1.7215625 17.50835937 -2.640625 17.48046875 C-3.31609375 17.44566406 -3.9915625 17.41085937 -4.6875 17.375 C-4.71434679 14.72909986 -4.73426357 12.08346904 -4.75 9.4375 C-4.75837891 8.68275391 -4.76675781 7.92800781 -4.77539062 7.15039062 C-4.78402441 5.22505687 -4.73974333 3.29964419 -4.6875 1.375 C-3.6875 0.375 -3.6875 0.375 0 0 Z " fill="#CCCFD3" transform="translate(180.6875,324.625)"/>
<path d="M0 0 C1.588125 -0.061875 3.17625 -0.12375 4.8125 -0.1875 C6.15248047 -0.23970703 6.15248047 -0.23970703 7.51953125 -0.29296875 C10 0 10 0 11.84765625 1.30859375 C13.74292719 4.09046602 12.53532359 6.78805846 12 10 C12.2602896 12.34260643 12.57420028 14.6817571 13 17 C12.01 16.67 11.02 16.34 10 16 C9.3125 13.9375 9.3125 13.9375 9 12 C6.69 11.67 4.38 11.34 2 11 C2 12.98 2 14.96 2 17 C1.34 17 0.68 17 0 17 C0 11.39 0 5.78 0 0 Z " fill="#E6E4E3" transform="translate(138,325)"/>
<path d="M0 0 C2.77160662 2.39366027 4.07263207 4.44508961 5 8 C4.86376279 12.47979999 4.08583802 16.65664793 3 21 C0.03 21 -2.94 21 -6 21 C-5.61821279 14.31872389 -5.06889429 5.06889429 0 0 Z " fill="#EAE7E5" transform="translate(221,204)"/>
<path d="M0 0 C0.99 0.33 1.98 0.66 3 1 C3 2.98 3 4.96 3 7 C5.64 7 8.28 7 11 7 C11 5.02 11 3.04 11 1 C11.99 0.67 12.98 0.34 14 0 C14 5.61 14 11.22 14 17 C13.01 17 12.02 17 11 17 C11 14.69 11 12.38 11 10 C8.36 10 5.72 10 3 10 C3 12.31 3 14.62 3 17 C2.01 17 1.02 17 0 17 C0 11.39 0 5.78 0 0 Z " fill="#B3BAC4" transform="translate(242,325)"/>
<path d="M0 0 C0.99 0.33 1.98 0.66 3 1 C3 2.98 3 4.96 3 7 C5.64 7 8.28 7 11 7 C11 5.02 11 3.04 11 1 C11.99 0.67 12.98 0.34 14 0 C14 5.61 14 11.22 14 17 C13.01 17 12.02 17 11 17 C11 14.69 11 12.38 11 10 C8.36 10 5.72 10 3 10 C3 12.31 3 14.62 3 17 C2.01 17 1.02 17 0 17 C0 11.39 0 5.78 0 0 Z " fill="#B3BAC4" transform="translate(196,325)"/>
<path d="M0 0 C0.99 0 1.98 0 3 0 C5.04296875 2.625 5.04296875 2.625 7.1875 6 C7.55552734 6.57234375 7.92355469 7.1446875 8.30273438 7.734375 C9.21125071 9.15024462 10.10686477 10.57437797 11 12 C11.33 8.04 11.66 4.08 12 0 C12.66 0 13.32 0 14 0 C14 5.61 14 11.22 14 17 C9.26248525 15.81562131 8.84258011 14.87622747 6.25 10.9375 C5.32960938 9.55884766 5.32960938 9.55884766 4.390625 8.15234375 C3.93171875 7.44207031 3.4728125 6.73179687 3 6 C2.67 9.63 2.34 13.26 2 17 C1.01 17 0.02 17 -1 17 C-1.02684679 14.35409986 -1.04676357 11.70846904 -1.0625 9.0625 C-1.07087891 8.30775391 -1.07925781 7.55300781 -1.08789062 6.77539062 C-1.09652441 4.85005687 -1.05224333 2.92464419 -1 1 C-0.67 0.67 -0.34 0.34 0 0 Z " fill="#C7CAD0" transform="translate(374,325)"/>
<path d="M0 0 C0.99 0 1.98 0 3 0 C5.04296875 2.625 5.04296875 2.625 7.1875 6 C7.55552734 6.57234375 7.92355469 7.1446875 8.30273438 7.734375 C9.21125071 9.15024462 10.10686477 10.57437797 11 12 C11.33 8.04 11.66 4.08 12 0 C12.66 0 13.32 0 14 0 C14 5.61 14 11.22 14 17 C9.26248525 15.81562131 8.84258011 14.87622747 6.25 10.9375 C5.32960938 9.55884766 5.32960938 9.55884766 4.390625 8.15234375 C3.93171875 7.44207031 3.4728125 6.73179687 3 6 C2.67 9.63 2.34 13.26 2 17 C1.01 17 0.02 17 -1 17 C-1.02684679 14.35409986 -1.04676357 11.70846904 -1.0625 9.0625 C-1.07087891 8.30775391 -1.07925781 7.55300781 -1.08789062 6.77539062 C-1.09652441 4.85005687 -1.05224333 2.92464419 -1 1 C-0.67 0.67 -0.34 0.34 0 0 Z " fill="#C7CAD0" transform="translate(271,325)"/>
<path d="M0 0 C0.99 0 1.98 0 3 0 C5.04296875 2.625 5.04296875 2.625 7.1875 6 C7.55552734 6.57234375 7.92355469 7.1446875 8.30273438 7.734375 C9.21125071 9.15024462 10.10686477 10.57437797 11 12 C11.33 8.04 11.66 4.08 12 0 C12.66 0 13.32 0 14 0 C14 5.61 14 11.22 14 17 C9.26248525 15.81562131 8.84258011 14.87622747 6.25 10.9375 C5.32960938 9.55884766 5.32960938 9.55884766 4.390625 8.15234375 C3.93171875 7.44207031 3.4728125 6.73179687 3 6 C2.67 9.63 2.34 13.26 2 17 C1.01 17 0.02 17 -1 17 C-1.02684679 14.35409986 -1.04676357 11.70846904 -1.0625 9.0625 C-1.07087891 8.30775391 -1.07925781 7.55300781 -1.08789062 6.77539062 C-1.09652441 4.85005687 -1.05224333 2.92464419 -1 1 C-0.67 0.67 -0.34 0.34 0 0 Z " fill="#C7CAD0" transform="translate(109,325)"/>
<path d="M0 0 C0.99 0 1.98 0 3 0 C4.0067004 2.26807204 5.00551766 4.53907754 6 6.8125 C6.28617187 7.45509766 6.57234375 8.09769531 6.8671875 8.75976562 C8.13711041 11.67756469 9 13.78265714 9 17 C8.34 17 7.68 17 7 17 C6.67 15.68 6.34 14.36 6 13 C3.03 13 0.06 13 -3 13 C-3.33 14.32 -3.66 15.64 -4 17 C-4.66 17 -5.32 17 -6 17 C-5.49487476 10.77012202 -2.67395877 5.54525767 0 0 Z " fill="#D1D3D6" transform="translate(333,325)"/>
<path d="M0 0 C0.99 0 1.98 0 3 0 C4.0067004 2.26807204 5.00551766 4.53907754 6 6.8125 C6.28617188 7.45509766 6.57234375 8.09769531 6.8671875 8.75976562 C8.13711041 11.67756469 9 13.78265714 9 17 C8.34 17 7.68 17 7 17 C6.67 15.68 6.34 14.36 6 13 C3.03 13 0.06 13 -3 13 C-3.33 14.32 -3.66 15.64 -4 17 C-4.66 17 -5.32 17 -6 17 C-5.49487476 10.77012202 -2.67395877 5.54525767 0 0 Z " fill="#D1D3D6" transform="translate(94,325)"/>
<path d="M0 0 C6.75 0.75 6.75 0.75 9 3 C9.375 6.4375 9.375 6.4375 9 10 C7.3125 11.9375 7.3125 11.9375 5 13 C3.35 13 1.7 13 0 13 C0 8.71 0 4.42 0 0 Z " fill="#22436C" transform="translate(397,327)"/>
<path d="M0 0 C6.75 0.75 6.75 0.75 9 3 C9.375 6.4375 9.375 6.4375 9 10 C7.3125 11.9375 7.3125 11.9375 5 13 C3.35 13 1.7 13 0 13 C0 8.71 0 4.42 0 0 Z " fill="#22436C" transform="translate(179,327)"/>
<path d="M0 0 C0.99 0.33 1.98 0.66 3 1 C3.33 2.98 3.66 4.96 4 7 C6.31 4.69 8.62 2.38 11 0 C11.33 0.99 11.66 1.98 12 3 C10.0625 5.6875 10.0625 5.6875 8 8 C8.3609375 8.48210937 8.721875 8.96421875 9.09375 9.4609375 C9.5578125 10.09257812 10.021875 10.72421875 10.5 11.375 C10.9640625 12.00148438 11.428125 12.62796875 11.90625 13.2734375 C13 15 13 15 13 17 C9.28631113 15.76210371 8.22645819 14.14775123 6 11 C6 10.34 6 9.68 6 9 C5.34 9 4.68 9 4 9 C3.67 11.64 3.34 14.28 3 17 C2.01 17 1.02 17 0 17 C0 11.39 0 5.78 0 0 Z " fill="#CED0D4" transform="translate(347,325)"/>
<path d="M0 0 C0.66 0 1.32 0 2 0 C2.06058594 0.92683594 2.12117187 1.85367187 2.18359375 2.80859375 C2.26738281 4.00613281 2.35117188 5.20367187 2.4375 6.4375 C2.51871094 7.63246094 2.59992188 8.82742188 2.68359375 10.05859375 C2.67656114 12.88570244 2.67656114 12.88570244 4 14 C6.5 14.16666667 6.5 14.16666667 9 14 C10.87824891 12.12175109 10.39102397 8.96064724 10.5625 6.4375 C10.64628906 5.23996094 10.73007813 4.04242188 10.81640625 2.80859375 C10.87699219 1.88175781 10.93757812 0.95492188 11 0 C11.66 0 12.32 0 13 0 C13.08097324 2.27024968 13.13917704 4.54132075 13.1875 6.8125 C13.22230469 8.07707031 13.25710937 9.34164063 13.29296875 10.64453125 C13 14 13 14 11.703125 15.921875 C8.7782894 17.77337643 6.34728372 17.41106993 3 17 C0.796875 15.359375 0.796875 15.359375 -1 13 C-1.42578125 10.01953125 -1.42578125 10.01953125 -1.3125 6.8125 C-1.28800781 5.74644531 -1.26351562 4.68039062 -1.23828125 3.58203125 C-1 1 -1 1 0 0 Z " fill="#E2E1E0" transform="translate(157,325)"/>
<path d="M0 0 C0.66 0 1.32 0 2 0 C2 2.64 2 5.28 2 8 C4.97 8 7.94 8 11 8 C11 5.36 11 2.72 11 0 C11.66 0 12.32 0 13 0 C13 5.61 13 11.22 13 17 C12.34 17 11.68 17 11 17 C11 14.69 11 12.38 11 10 C8.03 10 5.06 10 2 10 C2 12.31 2 14.62 2 17 C1.34 17 0.68 17 0 17 C0 11.39 0 5.78 0 0 Z " fill="#DBDBDC" transform="translate(308,325)"/>
<path d="M0 0 C0.66 0.33 1.32 0.66 2 1 C2 1.66 2 2.32 2 3 C0.1128125 2.9071875 0.1128125 2.9071875 -1.8125 2.8125 C-4.39469981 2.83081347 -5.74451965 2.86838891 -8.0625 4.0625 C-9.55238061 7.1415866 -8.67482518 9.74856958 -8 13 C-3.02093741 13.75427297 -3.02093741 13.75427297 2 14 C2 14.66 2 15.32 2 16 C-1.21804148 17.60902074 -4.51947705 17.59842983 -8 17 C-11.24985922 14.31886615 -11.89575014 12.64866582 -12.5625 8.5 C-12 5 -12 5 -9.9375 2.0625 C-6.32000344 -0.47744439 -4.33327174 -0.49055907 0 0 Z " fill="#D6D7D9" transform="translate(235,325)"/>
<path d="M0 0 C4.29 0 8.58 0 13 0 C13.33 0.66 13.66 1.32 14 2 C12.02 2 10.04 2 8 2 C8 6.95 8 11.9 8 17 C7.01 17 6.02 17 5 17 C5 12.38 5 7.76 5 3 C3.35 3 1.7 3 0 3 C0 2.01 0 1.02 0 0 Z " fill="#C2C7CD" transform="translate(290,325)"/>
<path d="M0 0 C0.99 0.33 1.98 0.66 3 1 C3 6.28 3 11.56 3 17 C2.01 17 1.02 17 0 17 C0 11.39 0 5.78 0 0 Z " fill="#BDC3CA" transform="translate(414,325)"/>
<path d="M0 0 C3.375 -0.125 3.375 -0.125 7 0 C7.66 0.66 8.32 1.32 9 2 C8.625 4.125 8.625 4.125 8 6 C5.36 6 2.72 6 0 6 C0 4.02 0 2.04 0 0 Z " fill="#314F75" transform="translate(140,327)"/>
<path d="M0 0 C0.99 0.33 1.98 0.66 3 1 C3 6.28 3 11.56 3 17 C2.01 17 1.02 17 0 17 C0 11.39 0 5.78 0 0 Z " fill="#BDC3CA" transform="translate(129,325)"/>
<path d="M0 0 C0.66 0 1.32 0 2 0 C2 5.61 2 11.22 2 17 C0.68 16.67 -0.64 16.34 -2 16 C-3.25 13.4375 -3.25 13.4375 -4 11 C-3.01 11.33 -2.02 11.66 -1 12 C-0.67 8.04 -0.34 4.08 0 0 Z " fill="#E8E6E4" transform="translate(386,325)"/>
<path d="M0 0 C0.66 0 1.32 0 2 0 C2 5.61 2 11.22 2 17 C0.68 16.67 -0.64 16.34 -2 16 C-3.25 13.4375 -3.25 13.4375 -4 11 C-3.01 11.33 -2.02 11.66 -1 12 C-0.67 8.04 -0.34 4.08 0 0 Z " fill="#E8E6E4" transform="translate(283,325)"/>
<path d="M0 0 C0.66 0 1.32 0 2 0 C2 5.61 2 11.22 2 17 C0.68 16.67 -0.64 16.34 -2 16 C-3.25 13.4375 -3.25 13.4375 -4 11 C-3.01 11.33 -2.02 11.66 -1 12 C-0.67 8.04 -0.34 4.08 0 0 Z " fill="#E8E6E4" transform="translate(121,325)"/>
<path d="M0 0 C1.19109375 -0.00386719 1.19109375 -0.00386719 2.40625 -0.0078125 C4.5 0.125 4.5 0.125 6.5 1.125 C7.125 4.1875 7.125 4.1875 7.5 7.125 C6.84 7.125 6.18 7.125 5.5 7.125 C5.17 5.805 4.84 4.485 4.5 3.125 C1.53 3.125 -1.44 3.125 -4.5 3.125 C-4.83 4.445 -5.16 5.765 -5.5 7.125 C-6.16 7.125 -6.82 7.125 -7.5 7.125 C-7.125 4.1875 -7.125 4.1875 -6.5 1.125 C-4.13386544 -0.05806728 -2.63219264 -0.00854608 0 0 Z " fill="#E5E4E2" transform="translate(334.5,334.875)"/>
<path d="M0 0 C1.19109375 -0.00386719 1.19109375 -0.00386719 2.40625 -0.0078125 C4.5 0.125 4.5 0.125 6.5 1.125 C7.125 4.1875 7.125 4.1875 7.5 7.125 C6.84 7.125 6.18 7.125 5.5 7.125 C5.17 5.805 4.84 4.485 4.5 3.125 C1.53 3.125 -1.44 3.125 -4.5 3.125 C-4.83 4.445 -5.16 5.765 -5.5 7.125 C-6.16 7.125 -6.82 7.125 -7.5 7.125 C-7.125 4.1875 -7.125 4.1875 -6.5 1.125 C-4.13386544 -0.05806728 -2.63219264 -0.00854608 0 0 Z " fill="#E5E4E2" transform="translate(95.5,334.875)"/>
<path d="M0 0 C1.01382963 3.6208201 1.49897691 7.27811418 2 11 C1.01 10.67 0.02 10.34 -1 10 C-1.6875 7.9375 -1.6875 7.9375 -2 6 C-4.31 5.67 -6.62 5.34 -9 5 C-9 4.01 -9 3.02 -9 2 C-6.94921875 1.77213542 -4.8984375 1.54427083 -2.84765625 1.31640625 C-0.98859771 1.18113386 -0.98859771 1.18113386 0 0 Z " fill="#B8BEC7" transform="translate(149,331)"/>
<path d="M0 0 C0.66 0 1.32 0 2 0 C2 2.64 2 5.28 2 8 C4.97 8 7.94 8 11 8 C11 8.33 11 8.66 11 9 C8.03 9 5.06 9 2 9 C2 11.64 2 14.28 2 17 C1.34 17 0.68 17 0 17 C0 11.39 0 5.78 0 0 Z " fill="#EFEBE8" transform="translate(308,325)"/>
<path d="M0 0 C0.66 0 1.32 0 2 0 C2 4.29 2 8.58 2 13 C1.01 13 0.02 13 -1 13 C-1.02686553 11.02090602 -1.04633375 9.04171029 -1.0625 7.0625 C-1.07410156 5.96035156 -1.08570313 4.85820312 -1.09765625 3.72265625 C-1 1 -1 1 0 0 Z " fill="#BFC4CB" transform="translate(157,325)"/>
<path d="M0 0 C0.66 0 1.32 0 2 0 C2 5.61 2 11.22 2 17 C1.34 17 0.68 17 0 17 C0 14.36 0 11.72 0 9 C-0.66 8.67 -1.32 8.34 -2 8 C-1.34 8 -0.68 8 0 8 C0 5.36 0 2.72 0 0 Z " fill="#DDDDDE" transform="translate(254,325)"/>
<path d="M0 0 C0.66 0 1.32 0 2 0 C2 5.61 2 11.22 2 17 C1.34 17 0.68 17 0 17 C0 14.36 0 11.72 0 9 C-0.66 8.67 -1.32 8.34 -2 8 C-1.34 8 -0.68 8 0 8 C0 5.36 0 2.72 0 0 Z " fill="#DDDDDE" transform="translate(208,325)"/>
<path d="M0 0 C2.46800047 1.15173355 4.04783565 2.04783565 6 4 C6.25 7 6.25 7 6 10 C5.34 10.66 4.68 11.32 4 12 C3.87625 10.39125 3.87625 10.39125 3.75 8.75 C2.94523098 4.7261549 2.12270126 3.51830747 -1 1 C-0.67 0.67 -0.34 0.34 0 0 Z " fill="#DDDDDD" transform="translate(403,326)"/>
<path d="M0 0 C2.46800047 1.15173355 4.04783565 2.04783565 6 4 C6.25 7 6.25 7 6 10 C5.34 10.66 4.68 11.32 4 12 C3.87625 10.39125 3.87625 10.39125 3.75 8.75 C2.94523098 4.7261549 2.12270126 3.51830747 -1 1 C-0.67 0.67 -0.34 0.34 0 0 Z " fill="#DDDDDD" transform="translate(185,326)"/>
<path d="M0 0 C3 3.625 3 3.625 3 7 C1.35 7 -0.3 7 -2 7 C-1.125 1.125 -1.125 1.125 0 0 Z " fill="#365478" transform="translate(334,329)"/>
<path d="M0 0 C3 3.625 3 3.625 3 7 C1.35 7 -0.3 7 -2 7 C-1.125 1.125 -1.125 1.125 0 0 Z " fill="#365478" transform="translate(95,329)"/>
<path d="M0 0 C3.63 0.33 7.26 0.66 11 1 C11 1.33 11 1.66 11 2 C8.03 2 5.06 2 2 2 C1.67 3.32 1.34 4.64 1 6 C0.34 6 -0.32 6 -1 6 C-0.67 4.02 -0.34 2.04 0 0 Z " fill="#CFD1D5" transform="translate(328,336)"/>
<path d="M0 0 C3.63 0.33 7.26 0.66 11 1 C11 1.33 11 1.66 11 2 C8.03 2 5.06 2 2 2 C1.67 3.32 1.34 4.64 1 6 C0.34 6 -0.32 6 -1 6 C-0.67 4.02 -0.34 2.04 0 0 Z " fill="#CFD1D5" transform="translate(89,336)"/>
<path d="M0 0 C0.33 0 0.66 0 1 0 C1.33 2.64 1.66 5.28 2 8 C-0.475 9.485 -0.475 9.485 -3 11 C-3.33 10.01 -3.66 9.02 -4 8 C-3.01 7.34 -2.02 6.68 -1 6 C-0.26656572 2.93443402 -0.26656572 2.93443402 0 0 Z " fill="#B2BAC3" transform="translate(406,331)"/>
<path d="M0 0 C0.33 0 0.66 0 1 0 C1.33 2.64 1.66 5.28 2 8 C-0.475 9.485 -0.475 9.485 -3 11 C-3.33 10.01 -3.66 9.02 -4 8 C-3.01 7.34 -2.02 6.68 -1 6 C-0.26656572 2.93443402 -0.26656572 2.93443402 0 0 Z " fill="#B2BAC3" transform="translate(188,331)"/>
<path d="M0 0 C0.99 0.33 1.98 0.66 3 1 C3.33 3.31 3.66 5.62 4 8 C3.01 7.67 2.02 7.34 1 7 C0.67 4.69 0.34 2.38 0 0 Z " fill="#CBCED2" transform="translate(147,334)"/>
<path d="M0 0 C0 0.66 0 1.32 0 2 C-2.70879335 3.35439668 -5.00933268 3.06501451 -8 3 C-8 2.34 -8 1.68 -8 1 C-5.23735711 0.40267181 -2.83967231 0 0 0 Z " fill="#E2E1E0" transform="translate(237,339)"/>
</svg>
